<svg width="1200" height="700" viewBox="0 0 1200 700" xmlns="http://www.w3.org/2000/svg" fill="none">
  <defs>
    <linearGradient id="bg" x1="80" y1="0" x2="1100" y2="700" gradientUnits="userSpaceOnUse">
      <stop stop-color="#0F172A"/>
      <stop offset="1" stop-color="#1D4ED8"/>
    </linearGradient>
    <linearGradient id="orb" x1="280" y1="100" x2="520" y2="340" gradientUnits="userSpaceOnUse">
      <stop stop-color="#22D3EE"/>
      <stop offset="1" stop-color="#A78BFA"/>
    </linearGradient>
  </defs>

  <rect width="1200" height="700" rx="40" fill="url(#bg)"/>
  <circle cx="400" cy="240" r="170" fill="url(#orb)" fill-opacity="0.8"/>
  <circle cx="920" cy="170" r="120" fill="#38BDF8" fill-opacity="0.25"/>
  <circle cx="860" cy="520" r="180" fill="#C4B5FD" fill-opacity="0.2"/>

  <path d="M140 560C280 440 430 480 580 560" stroke="#E2E8F0" stroke-opacity="0.35" stroke-width="10" stroke-linecap="round"/>
  <path d="M360 550C500 430 650 470 800 550" stroke="#E2E8F0" stroke-opacity="0.25" stroke-width="10" stroke-linecap="round"/>

  <rect x="740" y="250" width="320" height="210" rx="20" fill="#ffffff" fill-opacity="0.08"/>
  <rect x="770" y="290" width="200" height="14" rx="7" fill="#E2E8F0" fill-opacity="0.6"/>
  <rect x="770" y="325" width="250" height="12" rx="6" fill="#E2E8F0" fill-opacity="0.45"/>
  <rect x="770" y="355" width="170" height="12" rx="6" fill="#E2E8F0" fill-opacity="0.45"/>

  <text x="120" y="130" fill="#F8FAFC" font-size="52" font-family="Segoe UI, sans-serif" font-weight="700">
    StudyApp
  </text>
  <text x="120" y="178" fill="#BFDBFE" font-size="26" font-family="Segoe UI, sans-serif">
    Plan smart. Focus better.
  </text>
</svg>
