<svg width="240" height="240" viewBox="0 0 240 240" fill="none" xmlns="http://www.w3.org/2000/svg">
  <rect width="240" height="240" rx="36" fill="#ECFDF5"/>
  <circle cx="120" cy="122" r="74" fill="#22C55E"/>
  <ellipse cx="121" cy="136" rx="44" ry="38" fill="#DCFCE7"/>
  <circle cx="94" cy="110" r="12" fill="#0F172A"/>
  <circle cx="146" cy="110" r="12" fill="#0F172A"/>
  <path d="M103 156C110 165 131 165 138 156" stroke="#0F172A" stroke-width="8" stroke-linecap="round"/>
  <path d="M174 129C160 140 145 146 128 147C133 133 144 121 161 111C170 106 180 113 180 122V123C180 125 178 127 176 128L174 129Z" fill="#F59E0B"/>
  <path d="M120 54L136 84H104L120 54Z" fill="#FACC15"/>
  <path d="M62 78C67 62 81 52 97 52C82 64 73 79 70 96L62 78Z" fill="#16A34A"/>
  <path d="M177 77C172 61 158 51 142 51C157 63 166 78 169 95L177 77Z" fill="#16A34A"/>
</svg>

